<svg xmlns="http://www.w3.org/2000/svg" width="16" height="8" viewBox="0 0 16 8">
    <path fill="#44444F" fill-rule="evenodd" d="M12.482.228c-.309-.308-.82-.304-1.128.013-.308.316-.299.822.01 1.131l1.87 1.829H4.665C4.337 2.268 3.441 1.6 2.4 1.6 1.07 1.6 0 2.674 0 4c0 1.325 1.07 2.4 2.4 2.4 1.041 0 1.937-.668 2.265-1.6h8.569l-1.87 1.827c-.309.31-.318.815-.01 1.132.309.316.82.321 1.128.012l3.277-3.2c.154-.15.241-.357.241-.571 0-.216-.087-.423-.241-.573l-3.277-3.2zM1.6 4.001c0-.443.357-.8.8-.8.443 0 .8.357.8.8 0 .441-.357.8-.8.8-.443 0-.8-.359-.8-.8z"/>
</svg>
