<svg xmlns="http://www.w3.org/2000/svg" width="18" height="22" viewBox="0 0 18 22">
    <path fill="#FFF" fill-rule="evenodd" d="M4.6 0c-.61 0-1.1.492-1.1 1.1v1.1C1.67 2.2.2 3.677.2 5.5v13.199C.2 20.522 1.671 22 3.5 22h11c1.815 0 3.299-1.478 3.299-3.301v-13.2c0-1.822-1.484-3.3-3.3-3.3V1.1C14.5.493 13.996 0 13.4 0c-.61 0-1.1.492-1.1 1.1v1.1h-2.2V1.1C10.1.492 9.596 0 9 0c-.61 0-1.1.492-1.1 1.1v1.1H5.7V1.1C5.7.492 5.197 0 4.6 0zm7.7 4.4h-2.2v1.1c0 .607-.504 1.1-1.1 1.1-.61 0-1.1-.493-1.1-1.1V4.4H5.7v1.1c0 .607-.504 1.1-1.1 1.1-.61 0-1.1-.493-1.1-1.1V4.4c-.61 0-1.1.493-1.1 1.1v13.199c0 .608.49 1.1 1.1 1.1h11c.595 0 1.1-.492 1.1-1.1v-13.2c0-.606-.505-1.1-1.1-1.1v1.1c0 .608-.504 1.1-1.1 1.1-.61 0-1.1-.492-1.1-1.1V4.4zm.132 5.745c.477.383.543 1.076.172 1.547l-3.565 4.4c-.212.252-.517.4-.835.407-.331.007-.636-.13-.848-.372l-1.935-2.202c-.41-.455-.357-1.15.093-1.551.464-.402 1.153-.357 1.55.099l1.074 1.222 2.757-3.387c.37-.474 1.073-.545 1.537-.163z"/>
</svg>
