<svg xmlns="http://www.w3.org/2000/svg" width="22" height="20" viewBox="0 0 22 20">
    <path fill="#92929D" fill-rule="evenodd" d="M0 8.474v-.368C0 3.629 3.618 0 8.071 0h5.871C18.395 0 22 3.629 22 8.106c0 4.455-3.578 8.07-8.005 8.105l-3.644 3.052C8.866 20.51 6.6 19.446 6.6 17.498v-1.365C2.876 15.596 0 12.372 0 8.474zm8.946 9.092l3.91-3.28c.225-.185.503-.286.795-.286h.291c3.234 0 5.858-2.64 5.858-5.894 0-3.257-2.624-5.895-5.858-5.895h-5.87C4.823 2.21 2.2 4.849 2.2 8.106v.368C2.2 11.526 4.665 14 7.7 14c.517 0 .954.356 1.073.835.014.087.027.177.027.27v2.393c0 .074.093.114.146.068zM5.5 6.6c0-.608.49-1.1 1.1-1.1h8.8c.61 0 1.1.492 1.1 1.1 0 .607-.49 1.1-1.1 1.1H6.6c-.61 0-1.1-.493-1.1-1.1zm1.1 2.2c-.61 0-1.1.493-1.1 1.1 0 .607.49 1.1 1.1 1.1h5.5c.61 0 1.1-.493 1.1-1.1 0-.607-.49-1.1-1.1-1.1H6.6z"/>
</svg>
