<svg xmlns="http://www.w3.org/2000/svg" width="22" height="16" viewBox="0 0 22 16">
    <path fill="#92929D" fill-rule="evenodd" d="M0 1.826C0 1.148.443.6 1.181.6H20.82C21.409.6 22 1.148 22 1.826c0 .676-.59 1.225-1.181 1.225H1.18C.443 3.051 0 2.501 0 1.826zm0 6.127c0-.676.443-1.225 1.181-1.225h12.255c.59 0 1.181.549 1.181 1.225s-.59 1.226-1.18 1.226H1.18C.443 9.179 0 8.629 0 7.953zm1.181 4.902c-.738 0-1.181.55-1.181 1.226 0 .677.443 1.225 1.181 1.225h4.873c.738 0 1.18-.548 1.18-1.225s-.442-1.226-1.18-1.226H1.18z"/>
</svg>
