<svg xmlns="http://www.w3.org/2000/svg" width="22" height="20" viewBox="0 0 22 20">
    <path fill="#FFF" fill-rule="evenodd" d="M19.8 19.9c1.22 0 2.2-.985 2.2-2.2v-11c0-.611-.252-1.165-.65-1.564-.026-.05-.052-.1-.079-.146L19.39 2.18c-.397-.613-1.087-.98-1.829-.98h-7.395l-.053-.066C9.714.49 9.012.1 8.257.1H2.2C.994.1 0 1.085 0 2.3V17.7c0 .584.239 1.144.65 1.556.41.413.967.644 1.55.644h17.6zM11.53 3.4l.69 1.1h6.082l-.742-1.1h-6.03zm8.27 14.3H2.2V2.3h6.057l2.425 3.883c.199.322.557.517.928.517H19.8v11zM5.5 13.3c-.61 0-1.1.493-1.1 1.1 0 .608.49 1.1 1.1 1.1h3.3c.61 0 1.1-.492 1.1-1.1 0-.607-.49-1.1-1.1-1.1H5.5zm5.5 1.1c0-.607.49-1.1 1.1-1.1h1.1c.61 0 1.1.493 1.1 1.1 0 .608-.49 1.1-1.1 1.1h-1.1c-.61 0-1.1-.492-1.1-1.1z"/>
</svg>
