<svg xmlns="http://www.w3.org/2000/svg" width="22" height="16" viewBox="0 0 22 16">
    <path fill="#92929D" fill-rule="evenodd" d="M2.492 7.508c0 .173-.132.332-.265.465.133.133.265.28.265.452.4.572.931 1.33 1.596 2.087C5.55 12.014 7.81 13.49 11 13.49s5.317-1.476 6.78-2.978c.797-.757 1.329-1.515 1.595-2.087.133-.173.265-.319.265-.452s-.132-.292-.265-.465c-.266-.572-.798-1.33-1.596-2.087C16.317 3.919 14.19 2.457 11 2.457S5.55 3.919 4.088 5.42c-.665.758-1.197 1.515-1.596 2.087zm19.408.904c0-.013 0-.013-.93-.439l.93.426c.133-.266.133-.585 0-.864l-.93.438.93-.438v-.027-.08c0-.053-.133-.133-.133-.239-.133-.2-.265-.492-.531-.824-.4-.678-.93-1.569-1.861-2.473C17.647 2.084 14.855.25 11 .25c-3.988 0-6.647 1.834-8.375 3.642-.93.904-1.595 1.795-1.994 2.473-.133.332-.265.625-.398.824C.1 7.295.1 7.375.1 7.429v.106l.93.438-.93-.438c-.133.279-.133.598 0 .864l.93-.426C.1 8.4.1 8.4.1 8.412v.093c0 .066 0 .146.133.253.133.199.265.478.398.824.4.664 1.064 1.568 1.994 2.459 1.728 1.808 4.387 3.656 8.375 3.656 3.855 0 6.647-1.848 8.375-3.656.93-.89 1.462-1.795 1.86-2.46.267-.345.4-.624.532-.823 0-.107.133-.187.133-.253v-.093zM11 10.18c-1.196 0-2.26-.997-2.26-2.207 0-1.223 1.064-2.206 2.26-2.206 1.196 0 2.127.983 2.127 2.206 0 1.21-.93 2.207-2.127 2.207zM6.613 7.973C6.613 5.527 8.607 3.56 11 3.56s4.387 1.967 4.387 4.413c0 2.433-1.994 4.414-4.387 4.414s-4.387-1.981-4.387-4.414z"/>
</svg>
