<svg xmlns="http://www.w3.org/2000/svg" width="24" height="24" viewBox="0 0 24 24">
    <path fill="#FFF" fill-rule="evenodd" d="M12 24.001C5.35 24.001 0 18.627 0 12S5.35 0 12 0s12 5.373 12 12-5.35 12.001-12 12.001zM12 2.4c-5.35 0-9.687 4.298-9.687 9.6 0 5.303 4.338 9.6 9.687 9.6 5.35 0 9.542-4.297 9.542-9.6 0-5.302-4.193-9.6-9.542-9.6zm0 8.1c.867 0 1.446.672 1.446 1.5v4.8c0 .828-.579 1.5-1.446 1.5s-1.59-.672-1.59-1.5V12c0-.828.723-1.5 1.59-1.5zM12 6c-.867 0-1.59.672-1.59 1.5 0 .83.723 1.5 1.59 1.5.867 0 1.446-.67 1.446-1.5 0-.828-.579-1.5-1.446-1.5z"/>
</svg>
