<svg xmlns="http://www.w3.org/2000/svg" width="16" height="16" viewBox="0 0 16 16">
    <path fill="#FFB000" fill-rule="evenodd" d="M8 16.001c-4.434 0-8-3.583-8-8.001 0-4.418 3.566-8 8-8s8 3.582 8 8-3.566 8.001-8 8.001zM8 1.6C4.434 1.6 1.542 4.466 1.542 8c0 3.535 2.892 6.4 6.458 6.4 3.566 0 6.361-2.865 6.361-6.4 0-3.534-2.795-6.4-6.361-6.4zM8 7c.578 0 .964.448.964 1v3.2c0 .552-.386 1-.964 1s-1.06-.448-1.06-1V8c0-.552.482-1 1.06-1zm0-3c-.578 0-1.06.448-1.06 1 0 .553.482 1 1.06 1 .578 0 .964-.447.964-1 0-.552-.386-1-.964-1z"/>
</svg>
