<svg xmlns="http://www.w3.org/2000/svg" width="17" height="17" viewBox="0 0 17 17">
    <path fill="#0062FF" fill-rule="evenodd" d="M9.8.055c-.4.004-.8.389-.8.86s.4.85.8.845l3.9-.036-5.6 5.763c-.3.333-.3.873 0 1.206.4.333.9.333 1.2 0l5.6-5.762v4c0 .471.3.856.8.86.5.004.8-.374.8-.845L16.6.86c0-.228-.1-.448-.3-.61-.1-.162-.3-.252-.6-.25L9.8.055zM.8.396c-.4 0-.8.382-.8.853v14.499c0 .471.4.853.8.853h14.9c.5 0 .9-.382.9-.853v-4.265c0-.471-.4-.853-.9-.853-.4 0-.8.382-.8.853v3.412H1.6V2.102h3.8c.4 0 .8-.382.8-.853S5.8.396 5.4.396H.8z"/>
</svg>
