<svg xmlns="http://www.w3.org/2000/svg" width="16" height="16" viewBox="0 0 16 16">
    <path fill="#92929D" fill-rule="evenodd" d="M4.642.667h6.803c.53 0 1.06.232 1.502.645l1.767 1.77c.442.412.618.972.618 1.555v8.496c0 1.215-.971 2.2-2.12 2.2H2.875c-1.148 0-2.208-.985-2.208-2.2V4.637c0-.583.265-1.143.706-1.556l1.767-1.77C3.494.9 4.112.668 4.642.668zm7.245 1.68L13.212 3.6H2.876L4.2 2.348c.088-.137.265-.215.441-.215h6.803c.177 0 .354.078.442.215zm-6.008 2.72H2.875c-.353 0-.706.328-.706.733v7.333c0 .405.353.734.706.734h10.337c.353 0 .707-.329.707-.734V5.8c0-.405-.354-.734-.707-.734h-3.004v2.568c0 .607-.441 1.1-1.06 1.1H6.94c-.618 0-1.06-.493-1.06-1.1V5.066zm2.916 0v2.2H7.293v-2.2h1.502z"/>
</svg>
