<svg xmlns="http://www.w3.org/2000/svg" width="22" height="22" viewBox="0 0 22 22">
    <path fill="#92929D" fill-rule="evenodd" d="M15.474.657c.928-.876 2.385-.876 3.18 0l2.65 2.666c.928.876.928 2.295 0 3.172L7.657 20.184c-.133.21-.398.376-.663.489l-.132.013v-.005c0 .024 0 .045-.133.063L2.887 21.9c-.795.24-1.59.024-2.253-.56-.53-.585-.795-1.444-.53-2.236l1.192-3.821c.133-.354.265-.676.53-.937L15.474.656zm2.783 5.838L6.994 17.637l-2.65-2.665L15.474 3.83l1.59-1.586 1.193 1.08.397.506 1.06 1.08-1.457 1.586zM3.019 17.175l.133-.283 1.987 1.996-.265.085-2.65.78.795-2.578zm9.143-8.53c-.265.33-.265.862 0 1.19.397.329.927.329 1.192 0l3.975-3.924c.265-.329.265-.862 0-1.19-.397-.329-.927-.329-1.192 0l-3.975 3.924z"/>
</svg>
