<svg xmlns="http://www.w3.org/2000/svg" width="17" height="17" viewBox="0 0 17 17">
    <path fill="#0062FF" fill-rule="evenodd" d="M15.849 5.489c1.001-.984 1.001-2.579 0-3.563L14.747.738c-1.001-.984-2.604-.984-3.605 0L9.64 2.205 8.438 1.018c-.3-.328-.801-.328-1.202 0-.3.328-.3.86 0 1.188l1.202 1.187-.2.209v.01l-7.311 7.31c-.2.252-.4.577-.5.929l-.401 2.812c-.1.53.1 1.067.5 1.446.3.379.902.554 1.402.472l2.804-.437c.401-.055.702-.22 1.002-.472l5.608-5.679v-.006l1.903-1.844 1.202 1.188c.3.328.801.328 1.202 0 .3-.328.3-.859 0-1.187l-1.202-1.189 1.402-1.466zM10.84 3.393l2.404 2.375 1.502-1.467c.3-.328.3-.86 0-1.188l-1.202-1.187c-.4-.328-.9-.328-1.201 0L10.84 3.393zM7.837 6.424L9.44 4.799l2.404 2.375-7.31 7.31-2.805.437.4-2.812 5.71-5.678v-.007z"/>
</svg>
