<svg xmlns="http://www.w3.org/2000/svg" width="22" height="18" viewBox="0 0 22 18">
    <path fill="#FFF" fill-rule="evenodd" d="M0 2.4C0 1.185.928.2 2.253.2h17.494C21.072.2 22 1.185 22 2.4v13.2c0 1.215-.928 2.2-2.253 2.2H2.253C.928 17.8 0 16.815 0 15.6v-2.735V2.4zm2.253 11.016V15.6h17.494V12.703c0-.057-.133-.131-.265-.221l-3.71-4.155-5.7 4.819c-.397.28-.795.334-1.192.137L5.036 11.38l-2.783 2.036zm17.494-3.94l-2.916-3.408c-.397-.442-1.192-.494-1.59-.114l-6.096 5.04-3.711-1.877c-.398-.183-.795-.149-1.193.088l-1.988 1.507V2.4h17.494V9.476zM7.157 6.25c0-.912.662-1.65 1.59-1.65s1.723.738 1.723 1.65c0 .912-.795 1.65-1.723 1.65s-1.59-.738-1.59-1.65z"/>
</svg>
