<svg xmlns="http://www.w3.org/2000/svg" width="14" height="10" viewBox="0 0 14 10">
    <path fill="#0062FF" fill-rule="evenodd" d="M8.3.83C8.3.372 7.9 0 7.4 0H.8C.3 0 0 .372 0 .83c0 .459.3.83.8.83h6.6c.5 0 .9-.371.9-.83zm0 8.301c0-.459-.4-.83-.9-.83H.8c-.5 0-.8.371-.8.83 0 .458.3.83.8.83h6.6c.5 0 .9-.372.9-.83zm1.9-1.788c-.4.244-.9.127-1.1-.261-.3-.388-.2-.9.2-1.144l.2-.128H.8c-.5 0-.8-.371-.8-.83 0-.458.3-.83.8-.83h8.7l-.2-.127c-.4-.244-.5-.756-.2-1.144.2-.389.7-.505 1.1-.261l2.6 1.66c.3.152.4.417.4.702 0 .286-.1.551-.4.703l-2.6 1.66z"/>
</svg>
