<svg xmlns="http://www.w3.org/2000/svg" width="24" height="40" viewBox="0 0 24 40">
    <path fill="#FAB330" fill-rule="evenodd" d="M.363 2.675C.363 1.613 1.29.75 2.218.75h19.248c1.16 0 2.088.863 2.088 1.925 0 1.064-.928 1.925-2.087 1.925v7.762c0 1.714-.696 3.34-2.088 4.436l-3.71 3.203 3.71 3.203c1.392 1.097 2.088 2.72 2.088 4.434V35.4c1.16 0 2.087.86 2.087 1.925 0 1.062-.928 1.925-2.087 1.925H2.218c-.928 0-1.855-.863-1.855-1.925 0-1.064.927-1.925 1.855-1.925v-7.762c0-1.714.927-3.337 2.087-4.434L8.248 20l-3.943-3.203c-1.16-1.097-2.087-2.722-2.087-4.436V4.6C1.29 4.6.363 3.74.363 2.675zM17.756 31.55H6.16v-3.912c0-.57.232-1.11.696-1.477l3.943-3.21c.695-.594 1.623-.594 2.319 0l3.942 3.21c.464.366.696.907.696 1.477v3.912zM13.813 4.6h3.943V12.362c0 .318-.232.626-.232.9H6.392c-.232-.274-.232-.582-.232-.9V4.6H13.813z"/>
</svg>
