<svg xmlns="http://www.w3.org/2000/svg" width="22" height="22" viewBox="0 0 22 22">
    <path fill="#92929D" fill-rule="evenodd" d="M2.253 2.2v3.3h4.374V2.2H2.253zm0 8.8V7.7h4.374V11H2.253zm0 2.2v4.4c0 1.215.928 2.2 2.12 2.2 1.326 0 2.254-.985 2.254-2.2v-4.4H2.253zm7.024 6.6l2.783-2.773 1.59-1.627h6.23v4.4H9.277zm6.627-6.6l3.71-3.691c.796-.86.796-2.253 0-3.112l-3.18-3.112c-.795-.858-2.253-.858-3.048 0L9.94 6.657 8.88 7.785V2c0-1.105-.928-2-1.988-2H1.988C.928 0 0 .895 0 2v15.6C0 20.03 1.988 22 4.373 22H19.88c1.192 0 2.12-.985 2.12-2.2v-4.4c0-1.215-.928-2.2-2.12-2.2h-3.976zm-5.434 2.272l-1.59 1.647v-6.222l2.65-2.685 3.313-3.37 3.181 3.111-7.554 7.519z"/>
</svg>
