<svg xmlns="http://www.w3.org/2000/svg" width="14" height="10" viewBox="0 0 14 10">
    <path fill="#0062FF" fill-rule="evenodd" d="M4.9.83c0-.458.4-.83.9-.83h6.6c.5 0 .8.372.8.83 0 .459-.3.83-.8.83H5.8c-.5 0-.9-.371-.9-.83zm0 8.301c0-.459.4-.83.9-.83h6.6c.5 0 .8.371.8.83 0 .458-.3.83-.8.83H5.8c-.5 0-.9-.372-.9-.83zM3 7.343c.4.244.9.127 1.1-.261.3-.388.2-.9-.2-1.144l-.2-.128h8.7c.5 0 .8-.371.8-.83 0-.458-.3-.83-.8-.83H3.7l.2-.127c.4-.244.5-.756.2-1.144-.2-.389-.7-.505-1.1-.261L.4 4.278c-.3.152-.4.417-.4.702 0 .286.1.551.4.703L3 7.343z"/>
</svg>
