<svg xmlns="http://www.w3.org/2000/svg" width="20" height="22" viewBox="0 0 20 22">
    <path fill="#171725" fill-rule="evenodd" d="M1.193 0C.53 0 0 .493 0 1.1v19.8c0 .607.53 1.1 1.193 1.1.53 0 1.06-.493 1.06-1.1V2.2h6.626V20.9c0 .607.53 1.1 1.06 1.1.663 0 1.06-.493 1.06-1.1v-8.8h6.626v8.8c0 .607.53 1.1 1.06 1.1.663 0 1.193-.493 1.193-1.1V11c0-.608-.53-1.1-1.192-1.1h-7.687V1.1C11 .493 10.602 0 9.94 0H1.193zm3.843 4.4c-.663 0-1.193.493-1.193 1.1v1.1c0 .608.53 1.1 1.193 1.1h1.06c.663 0 1.06-.492 1.06-1.1V5.5c0-.607-.397-1.1-1.06-1.1h-1.06zM3.843 11c0-.608.53-1.1 1.193-1.1h1.06c.663 0 1.06.492 1.06 1.1v1.1c0 .608-.397 1.1-1.06 1.1h-1.06c-.663 0-1.193-.492-1.193-1.1V11zm1.193 4.4c-.663 0-1.193.492-1.193 1.1v1.1c0 .607.53 1.1 1.193 1.1h1.06c.663 0 1.06-.493 1.06-1.1v-1.1c0-.608-.397-1.1-1.06-1.1h-1.06zm8.746-1.1c-.53 0-1.06.492-1.06 1.1v1.1c0 .607.53 1.1 1.06 1.1h1.06c.663 0 1.193-.493 1.193-1.1v-1.1c0-.608-.53-1.1-1.193-1.1h-1.06z"/>
</svg>
