<svg xmlns="http://www.w3.org/2000/svg" width="22" height="12" viewBox="0 0 22 12">
    <path fill="#92929D" fill-rule="evenodd" d="M16.434.5h-11C2.386.5 0 2.962 0 6c0 3.039 2.386 5.501 5.434 5.501h11C19.482 11.501 22 9.04 22 6 22 2.962 19.482.5 16.434.5zM2.12 6c0-1.822 1.458-3.3 3.314-3.3h11c1.855 0 3.313 1.478 3.313 3.3 0 1.824-1.458 3.301-3.313 3.301h-11C3.578 9.301 2.12 7.824 2.12 6zM11 4.35c-.928 0-1.723.74-1.723 1.65 0 .912.795 1.651 1.723 1.651s1.59-.74 1.59-1.651c0-.91-.662-1.65-1.59-1.65zM14.313 6c0-.91.663-1.65 1.59-1.65.928 0 1.591.74 1.591 1.65 0 .912-.663 1.651-1.59 1.651-.928 0-1.59-.74-1.59-1.651zm-8.35-1.65c-.927 0-1.59.74-1.59 1.65 0 .912.663 1.651 1.59 1.651.929 0 1.724-.74 1.724-1.651 0-.91-.795-1.65-1.723-1.65z"/>
</svg>
