<?xml version="1.0" encoding="utf-8"?>
<!-- Generator: Adobe Illustrator 24.0.3, SVG Export Plug-In . SVG Version: 6.00 Build 0)  -->
<svg version="1.1" id="Layer_1" xmlns="http://www.w3.org/2000/svg" xmlns:xlink="http://www.w3.org/1999/xlink" x="0px" y="0px"
	 viewBox="0 0 497.8 65.9" style="enable-background:new 0 0 497.8 65.9;" xml:space="preserve">
<style type="text/css">
	.st0{fill:#FFFFFF;}
</style>
<g>
	<rect x="77.3" y="1.4" class="st0" width="7.7" height="61.8"/>
	<polygon class="st0" points="95.2,1.4 95.2,8.3 114.7,8.3 114.7,63.2 122.4,63.2 122.4,8.3 142,8.3 142,1.4 	"/>
	<path class="st0" d="M197.1,63.2L180.4,38c8.4-0.7,16.1-6.9,16.1-18c0-11.4-8.2-18.6-19.5-18.6h-24.8v61.8h7.7V31.9V22V8.3h16.2
		c7.3,0,12.4,4.7,12.4,11.8c0,6.9-5.1,11.9-12.4,11.9H168l20,31.3H197.1z"/>
	<polygon class="st0" points="486.8,1.4 467.6,30.1 448.4,1.4 439.4,1.4 463.8,37.1 463.8,63.2 471.5,63.2 471.5,37.1 495.8,1.4 	
		"/>
	<polygon class="st0" points="230.3,1.4 202.3,63.2 211.1,63.2 235.1,11.4 259.1,63.2 267.9,63.2 239.8,1.4 	"/>
	<polygon class="st0" points="58.8,1.4 34.8,53.2 10.8,1.4 2,1.4 30.1,63.2 39.6,63.2 67.6,1.4 	"/>
	<polygon class="st0" points="307.2,56.3 282.6,56.3 282.6,1.4 274.9,1.4 274.9,63.2 311.3,63.2 311.3,62.9 	"/>
	<path class="st0" d="M442.5,35.3L442.5,35.3v-3h-28.3l5.1,7.7h15.9c-3,10.4-12.6,18.1-23.9,18.2c-13.9,0.1-25.2-11.1-25.3-25
		C385.8,19.3,397,8,410.9,7.9c6.9-0.1,13.2,2.7,17.8,7.2l4.9-5c-5.9-5.8-13.9-9.3-22.8-9.3c-17.7,0.1-32,14.7-31.9,32.4
		c0.1,17.7,14.7,32,32.4,31.9c15.2-0.1,27.9-10.9,31.1-25.2h0.1v-0.4c0,0,0,0,0,0V35.3z"/>
	<path class="st0" d="M340.9,7.9c-13.9,0-25.1,11.3-25.1,25.1c0,13.9,11.3,25.1,25.1,25.1c13.9,0,25.2-11.3,25.2-25.1
		C366.1,19.1,354.8,7.9,340.9,7.9 M340.9,65.2c-17.7,0-32.2-14.4-32.2-32.2c0-17.7,14.4-32.2,32.2-32.2c17.7,0,32.1,14.4,32.1,32.2
		C373.1,50.7,358.7,65.2,340.9,65.2"/>
</g>
</svg>
